<?xml version="1.0" encoding="UTF-8"?>
<svg xmlns="http://www.w3.org/2000/svg" xmlns:xlink="http://www.w3.org/1999/xlink" width="28pt" height="28pt" viewBox="0 0 28 28" version="1.1">
<g id="surface1">
<path style=" stroke:none;fill-rule:nonzero;fill:rgb(74.509804%,74.509804%,74.509804%);fill-opacity:1;" d="M 28 14 C 28 21.730469 21.730469 28 14 28 C 6.269531 28 0 21.730469 0 14 C 0 6.269531 6.269531 0 14 0 C 21.730469 0 28 6.269531 28 14 "/>
<path style=" stroke:none;fill-rule:nonzero;fill:rgb(74.509804%,74.509804%,74.509804%);fill-opacity:1;" d="M 25.027344 14 C 25.027344 20.089844 20.089844 25.027344 14 25.027344 C 7.910156 25.027344 2.972656 20.089844 2.972656 14 C 2.972656 7.910156 7.910156 2.972656 14 2.972656 C 20.089844 2.972656 25.027344 7.910156 25.027344 14 "/>
<path style=" stroke:none;fill-rule:nonzero;fill:rgb(100%,100%,100%);fill-opacity:1;" d="M 13.183594 17.738281 L 14.089844 14.316406 L 16.242188 13.53125 L 16.78125 11.515625 L 16.761719 11.46875 L 14.640625 12.242188 L 16.167969 6.492188 L 11.839844 6.492188 L 9.84375 13.996094 L 8.175781 14.605469 L 7.625 16.679688 L 9.289062 16.070312 L 8.113281 20.492188 L 19.636719 20.492188 L 20.375 17.738281 L 13.183594 17.738281 "/>
</g>
</svg>
